<svg height="512" viewBox="0 0 42 60" width="512" xmlns="http://www.w3.org/2000/svg">
	<style>
		@keyframes scroll {
			0% {
				transform: translateY(0);
				opacity: 1;
			}
			30% {
				transform: translateY(30px);
				opacity: 0;
			}
		}

		svg #wheel {
			animation: scroll ease 2s infinite;
		}
	</style>
	<g id="Page-1" fill="none" fill-rule="evenodd">
		<g id="051---Mouse-Scroll" fill-rule="nonzero">
			<path id="Shape" d="m41 11v14h-17v-2c0-1.6568542-1.3431458-3-3-3s-3 1.3431458-3 3v2h-17v-14c0-5.5228475 4.4771525-10 10-10h20c5.5228475 0 10 4.4771525 10 10z" fill="#00bcd4"/>
			<path id="Shape" d="m18 20c-1.6568542 0-3 1.3431458-3 3v2h3v-2c.0017261-1.0676546.5737353-2.0530357 1.5-2.584-.4539503-.2699637-.9718471-.4135937-1.5-.416z" fill="#00838f"/>
			<path id="Shape" d="m31 1h-3c5.5228475 0 10 4.4771525 10 10v14h3v-14c0-5.5228475-4.4771525-10-10-10z" fill="#00838f"/>
			<path id="Shape" d="m41 25v20c0 3.7130309-1.4749958 7.2739856-4.1005051 9.8994949s-6.186464 4.1005051-9.8994949 4.1005051h-12c-7.7319865 0-14-6.2680135-14-14v-20h17v2c0 1.6568542 1.3431458 3 3 3s3-1.3431458 3-3v-2z" fill="#009688"/>
			<path id="Shape" d="m38 25v20c0 7.7319865-6.2680135 14-14 14h3c3.7130309 0 7.2739856-1.4749958 9.8994949-4.1005051s4.1005051-6.186464 4.1005051-9.8994949v-20z" fill="#00695c"/>
			<path id="Shape" d="m18 30c.5279736-.0027317 1.0457023-.14597 1.5-.415-.9268768-.5308381-1.4990459-1.516876-1.5-2.585v-2h-3v2c0 1.6568542 1.3431458 3 3 3z" fill="#00695c"/>
			<path id="Shape" d="m27 56h-5c-.5522847 0-1-.4477153-1-1s.4477153-1 1-1h5c4.9682782-.0055111 8.9944889-4.0317218 9-9v-3c0-.5522847.4477153-1 1-1s1 .4477153 1 1v3c-.0071635 6.0721626-4.9278374 10.9928365-11 11z" fill="#f5f5f5"/>
			<path id="Shape" d="m24 23v4c0 1.6568542-1.3431458 3-3 3s-3-1.3431458-3-3v-4c0-1.6568542 1.3431458-3 3-3s3 1.3431458 3 3z" fill="#ffeb3a"/>
			<path id="Shape" d="m6 30h-1c-.55228475 0-1-.4477153-1-1s.44771525-1 1-1h1c.55228475 0 1 .4477153 1 1s-.44771525 1-1 1z" fill="#f5f5f5"/>
			<path id="Shape" d="m13 30h-3c-.55228475 0-1-.4477153-1-1s.44771525-1 1-1h3c.5522847 0 1 .4477153 1 1s-.4477153 1-1 1z" fill="#f5f5f5"/>
			<path id="Shape" d="m37 39c-.5522847 0-1-.4477153-1-1v-2c0-.5522847.4477153-1 1-1s1 .4477153 1 1v2c0 .5522847-.4477153 1-1 1z" fill="#f5f5f5"/>
			<g fill="#000" id="wheel">
				<path id="Shape" d="m23.292 42.29-2.292 2.293-2.294-2.293c-.3950525-.3541623-.9979298-.33815-1.3736257.0364831-.375696.3746332-.393416.9774627-.0403743 1.3735169l3 3c.3904999.3903819 1.0235001.3903819 1.414 0l3-3c.3789722-.3923789.3735524-1.0160848-.0121814-1.4018186s-1.0094397-.3911536-1.4018186-.0121814z"/>
				<path id="Shape" d="m23.292 37.29-2.292 2.293-2.294-2.293c-.3950525-.3541623-.9979298-.33815-1.3736257.0364831-.375696.3746332-.393416.9774627-.0403743 1.3735169l3 3c.3904999.3903819 1.0235001.3903819 1.414 0l3-3c.3789722-.3923789.3735524-1.0160848-.0121814-1.4018186s-1.0094397-.3911536-1.4018186-.0121814z"/>
				<path id="Shape" d="m23.292 32.29-2.292 2.293-2.294-2.293c-.3950525-.3541623-.9979298-.33815-1.3736257.0364831-.375696.3746332-.393416.9774627-.0403743 1.3735169l3 3c.3904999.3903819 1.0235001.3903819 1.414 0l3-3c.3789722-.3923789.3735524-1.0160848-.0121814-1.4018186s-1.0094397-.3911536-1.4018186-.0121814z"/>
			</g>
		</g>
</g>
</svg>